<svg xmlns="http://www.w3.org/2000/svg" width="20" height="20" viewBox="0 0 20 20"><g transform="translate(0 2.2727) scale(0.9091)"><path d="M2 17c-.55 0-1.021-.196-1.412-.587S0 15.55 0 15s.196-1.021.588-1.412S1.45 13 2 13h.263a.64.64 0 0 1 .237.05L7.05 8.5A.64.64 0 0 1 7 8.263V8c0-.55.196-1.021.588-1.412S8.45 6 9 6s1.021.196 1.412.588S11 7.45 11 8c0 .033-.017.2-.05.5l2.55 2.55a.64.64 0 0 1 .238-.05H14h.262a.64.64 0 0 1 .238.05l3.55-3.55a.64.64 0 0 1-.05-.237V7c0-.55.196-1.021.587-1.412S19.45 5 20 5s1.021.196 1.413.588S22 6.45 22 7s-.196 1.021-.587 1.412S20.55 9 20 9h-.262a.64.64 0 0 1-.238-.05l-3.55 3.55a.64.64 0 0 1 .05.238V13c0 .55-.196 1.021-.588 1.412S14.55 15 14 15s-1.021-.196-1.412-.588S12 13.55 12 13v-.262a.64.64 0 0 1 .05-.238L9.5 9.95a.64.64 0 0 1-.238.05H9c-.033 0-.2-.017-.5-.05L3.95 14.5a.64.64 0 0 1 .05.238V15c0 .55-.196 1.021-.587 1.413S2.55 17 2 17zM3 6.975l-.625-1.35L1.025 5l1.35-.625L3 3.025l.625 1.35L4.975 5l-1.35.625L3 6.975zM14 6l-.95-2.05L11 3l2.05-.95L14 0l.95 2.05L17 3l-2.05.95L14 6z" fill="#13423a"/></g></svg>
