<svg xmlns="http://www.w3.org/2000/svg" viewBox="0 0 20 20">
    <path d="M1.8182 17.7277c-.5 0-.9282-.1782-1.2836-.5336S0 16.4095 0 15.9095s.1782-.9282.5346-1.2836.7836-.5346 1.2836-.5346h.239a.58.58 0 0 1 .2156.0455l4.1364-4.1364a.58.58 0 0 1-.0455-.2155v-.2391c0-.5.1782-.9282.5346-1.2836s.7836-.5346 1.2836-.5346.9282.1782 1.2836.5346.5346.7836.5346 1.2836c0 .03-.0155.1818-.0455.4546l2.3183 2.3182a.58.58 0 0 1 .2163-.0455h.4764a.58.58 0 0 1 .2163.0455l3.2274-3.2273a.58.58 0 0 1-.0455-.2155v-.2391c0-.5.1782-.9282.5336-1.2836s.7846-.5346 1.2846-.5346.9282.1782 1.2846.5346.5336.7836.5336 1.2836-.1782.9282-.5336 1.2836-.7846.5346-1.2846.5346h-.2382a.58.58 0 0 1-.2163-.0455L14.5 13.6368a.58.58 0 0 1 .0455.2163v.2382c0 .5-.1782.9282-.5346 1.2836s-.7836.5346-1.2836.5346-.9282-.1782-1.2836-.5346-.5346-.7836-.5346-1.2836v-.2382a.58.58 0 0 1 .0455-.2163l-2.3183-2.3183a.58.58 0 0 1-.2163.0455h-.2382c-.03 0-.1818-.0155-.4545-.0455L3.5909 15.455a.58.58 0 0 1 .0455.2163v.2382c0 .5-.1782.9282-.5336 1.2846s-.7846.5336-1.2846.5336m.9091-9.1137-.5682-1.2273-1.2273-.5682 1.2273-.5682.5682-1.2273.5682 1.2273 1.2273.5682-1.2273.5682zm10.0001-.8864-.8636-1.8637L10 5.0003l1.8637-.8636.8636-1.8637.8636 1.8637 1.8637.8636-1.8637.8636z" fill="currentColor"/>
</svg>
