<svg xmlns="http://www.w3.org/2000/svg" width="178" height="72" fill="currentColor">
    <path d="M30.662 2.678a18.83 18.83 0 0 1 7.352 7.456l1.504 2.796h-7.024l-.54-.854c-.617-.907-1.158-1.578-1.621-2.019-2.523-2.485-5.867-3.728-10.032-3.728s-7.475 1.243-9.995 3.728c-2.677 2.641-4.014 6.266-4.014 10.87s1.337 8.232 4.014 10.87c2.519 2.485 5.851 3.728 9.995 3.728s7.512-1.243 10.032-3.728c.463-.441 1.004-1.112 1.621-2.019a13.1 13.1 0 0 0 .54-.854h7.024l-1.504 2.796c-1.751 3.184-4.199 5.67-7.352 7.456s-6.605 2.678-10.362 2.678c-2.754 0-5.363-.506-7.833-1.513s-4.625-2.414-6.462-4.212-3.301-4.011-4.378-6.639S.006 24.01.006 20.928s.54-5.933 1.621-8.562 2.541-4.84 4.378-6.639 3.992-3.203 6.462-4.212S17.545 0 20.299 0c3.755 0 7.21.892 10.362 2.678zM66.764.467c4.091 0 7.383 1.112 9.878 3.34 2.47 2.199 3.705 5.163 3.705 8.891 0 2.485-.676 4.703-2.025 6.657s-3.159 3.411-5.422 4.368l8.723 17.667h-6.984L66.61 24.965H56.001V41.39h-6.407V.467h17.171zM56.001 18.755h10.495c2.418 0 4.295-.569 5.635-1.709 1.312-1.112 1.97-2.563 1.97-4.349s-.658-3.287-1.97-4.349c-1.389-1.14-3.267-1.709-5.635-1.709H56.001v12.112.003zM98.599.467v23.296c0 3.392 1.016 6.191 3.047 8.406s4.542 3.321 7.525 3.321 5.493-1.106 7.524-3.321 3.048-5.014 3.048-8.406V.467h6.33v23.685c0 4.995-1.646 9.195-4.941 12.6s-7.28 5.107-11.964 5.107-8.671-1.702-11.962-5.107-4.94-7.602-4.94-12.6V.467h6.33.003zm53.781 10.618L143.598.467h-8.336l12.196 14.663a10.87 10.87 0 0 1 4.922-4.045zm13.198 4.247L177.941.467h-8.336l-8.859 10.711c1.995.87 3.674 2.327 4.832 4.153zm-18.287 11.596l-12.029 14.461h8.336l8.513-10.267c-1.994-.882-3.674-2.352-4.82-4.194zm13.721 4.096l8.593 10.367h8.337l-12.2-14.666a10.88 10.88 0 0 1-4.73 4.3zM10.51 57.262H5.805V55.91h10.81v1.351h-4.669v11.227h-1.433V57.262h-.003zm9.714 10.201c-.753-.808-1.13-1.932-1.13-3.377 0-.963.173-1.786.516-2.479s.824-1.215 1.442-1.572 1.346-.537 2.177-.537c1.263 0 2.269.404 3.023 1.212s1.13 1.932 1.13 3.377c0 .963-.173 1.789-.516 2.479s-.828 1.215-1.451 1.572-1.349.537-2.171.537c-1.263 0-2.269-.404-3.023-1.212h.003zm4.542-.398c.423-.27.741-.659.957-1.165s.321-1.109.321-1.811c0-1.059-.244-1.889-.735-2.488s-1.183-.898-2.078-.898c-.59 0-1.09.137-1.507.407s-.732.659-.948 1.165-.321 1.109-.321 1.811c0 1.059.241 1.889.726 2.488s1.167.898 2.05.898c.599 0 1.111-.137 1.534-.407zm-1.945-10.969h1.374l-1.785 2.125h-.973l1.386-2.125h-.003zm2.094 0h1.374l-1.785 2.125h-.973l1.386-2.125h-.003zm143.27 11.367c-.754-.808-1.13-1.932-1.13-3.377 0-.963.173-1.786.515-2.479s.825-1.215 1.442-1.572 1.347-.537 2.177-.537c1.263 0 2.27.404 3.023 1.212s1.13 1.932 1.13 3.377c0 .963-.173 1.789-.516 2.479s-.827 1.215-1.451 1.572-1.349.537-2.17.537c-1.263 0-2.27-.404-3.023-1.212h.003zm4.542-.398c.423-.27.741-.659.957-1.165s.321-1.109.321-1.811c0-1.059-.244-1.889-.735-2.488s-1.182-.898-2.078-.898c-.59 0-1.09.137-1.507.407s-.731.659-.948 1.165-.321 1.109-.321 1.811c0 1.059.241 1.889.726 2.488s1.167.898 2.05.898c.599 0 1.112-.137 1.535-.407zm-1.945-10.969h1.374l-1.785 2.125h-.973l1.387-2.125h-.003zm2.093 0h1.374l-1.785 2.125h-.972l1.386-2.125h-.003zM32.387 55.91h1.343v7.325h1.785l-.791.444 3.217-3.995h1.618l-3.696 4.514-.019-.851 3.789 5.141h-1.636l-3.217-4.495.661.426h-1.71v4.07h-1.343V55.91zm12.011 11.571c-.729-.795-1.093-1.926-1.093-3.392 0-.975.182-1.805.543-2.498s.852-1.212 1.47-1.563 1.322-.528 2.106-.528c1.164 0 2.093.37 2.785 1.109s1.037 1.746 1.037 3.017l-.019.739H44.37l.238-.295v.075c0 1.084.235 1.917.707 2.498s1.13.87 1.976.87c.673 0 1.223-.161 1.646-.481a2.55 2.55 0 0 0 .892-1.239l1.176.258a3.31 3.31 0 0 1-1.26 1.904c-.643.481-1.461.721-2.455.721-1.201 0-2.168-.398-2.896-1.193h.003zm5.564-4.135c0-.789-.222-1.435-.67-1.942s-1.068-.758-1.865-.758-1.498.264-1.995.795-.769 1.283-.818 2.255l-.238-.407h5.826l-.238.426v-.37h-.003zm6.535 4.644c-.559-.457-.837-1.09-.837-1.904 0-.876.29-1.528.874-1.96s1.399-.659 2.455-.683a26.31 26.31 0 0 1 2.004 0l.516.019v-.814c0-.652-.176-1.152-.525-1.497s-.824-.519-1.423-.519-1.127.158-1.507.472-.648.73-.809 1.249l-1.269-.258c.207-.826.617-1.463 1.232-1.914s1.396-.674 2.353-.674c1.004 0 1.794.255 2.371.767s.864 1.286.864 2.321v5.899h-1.251v-1.591l.275.019c-.244.519-.63.941-1.158 1.267s-1.164.491-1.911.491c-.945 0-1.695-.227-2.251-.683l-.003-.006zm3.668-.711c.417-.18.744-.432.985-.758a1.8 1.8 0 0 0 .358-1.1v-.888l-2.501-.019c-.661.025-1.161.165-1.497.416s-.506.612-.506 1.081.164.842.488 1.118.75.416 1.278.416a3.49 3.49 0 0 0 1.396-.267zm8.05-11.369h1.343v12.578h-1.343V55.91zm7.251 12.08c-.559-.457-.837-1.09-.837-1.904 0-.876.29-1.528.874-1.96s1.399-.659 2.455-.683a26.31 26.31 0 0 1 2.004 0l.516.019v-.814c0-.652-.176-1.152-.525-1.497s-.824-.519-1.423-.519-1.127.158-1.507.472-.648.73-.809 1.249l-1.269-.258c.207-.826.618-1.463 1.232-1.914s1.396-.674 2.353-.674c1.004 0 1.794.255 2.371.767s.865 1.286.865 2.321v5.899h-1.251v-1.591l.275.019c-.244.519-.63.941-1.158 1.267s-1.164.491-1.911.491c-.945 0-1.695-.227-2.251-.683l-.003-.006zm3.668-.711c.417-.18.744-.432.985-.758a1.82 1.82 0 0 0 .358-1.1v-.888l-2.501-.019c-.661.025-1.161.165-1.498.416s-.506.612-.506 1.081.164.842.488 1.118.75.416 1.278.416a3.49 3.49 0 0 0 1.396-.267zm8.054-7.596h1.343v2.33h-.367c.136-.789.528-1.404 1.176-1.848s1.396-.665 2.242-.665c.747 0 1.414.177 2.004.528s1.053.867 1.399 1.544.516 1.491.516 2.442-.17 1.777-.506 2.479-.818 1.243-1.442 1.618-1.349.565-2.171.565c-.747 0-1.396-.158-1.939-.472s-.966-.761-1.26-1.342h.349v5.216h-1.343V59.686v-.003zm5.672 7.372c.411-.276.726-.674.948-1.193s.33-1.121.33-1.811c0-1.01-.244-1.82-.735-2.432s-1.17-.916-2.041-.916a2.9 2.9 0 0 0-1.389.351c-.435.233-.784.584-1.047 1.044s-.395 1.019-.395 1.674v1.019c0 .544.13 1.016.386 1.423s.605.718 1.037.935.911.323 1.423.323c.577 0 1.068-.14 1.479-.416h.003zm7.16-4.17h5.477v1.314h-5.477v-1.314zm10.734-6.974h1.451v5.53h2.446l3.751-5.53h1.711l-4.45 6.362v-.519l4.632 6.732h-1.785l-3.896-5.735h-2.409v5.735h-1.451V55.908v.003zm14.277 11.57c-.729-.795-1.093-1.926-1.093-3.392 0-.975.182-1.805.543-2.498s.852-1.212 1.47-1.563 1.321-.528 2.105-.528c1.165 0 2.094.37 2.786 1.109s1.037 1.746 1.037 3.017l-.018.739h-6.858l.237-.295v.075c0 1.084.235 1.917.708 2.498s1.13.87 1.976.87c.673 0 1.222-.161 1.645-.481s.72-.733.893-1.239l1.176.258a3.31 3.31 0 0 1-1.26 1.904c-.642.481-1.46.721-2.454.721-1.201 0-2.168-.398-2.897-1.193h.004zm5.56-4.135c0-.789-.222-1.435-.67-1.942s-1.068-.758-1.865-.758-1.497.264-1.994.795-.769 1.283-.818 2.255l-.238-.407h5.826l-.237.426v-.37h-.004zm5.697 3.792l6.142-6.62v.37h-5.975v-1.202h7.096V61l-6.049 6.511-.056-.221h6.213v1.202h-7.374v-1.351l.003-.003zm12.825.343c-.729-.795-1.093-1.926-1.093-3.392 0-.975.182-1.805.543-2.498s.852-1.212 1.47-1.563 1.321-.528 2.106-.528c1.164 0 2.093.37 2.785 1.109s1.037 1.746 1.037 3.017l-.018.739h-6.858l.238-.295v.075c0 1.084.234 1.917.707 2.498s1.13.87 1.976.87c.673 0 1.222-.161 1.645-.481s.72-.733.893-1.239l1.176.258a3.31 3.31 0 0 1-1.26 1.904c-.642.481-1.46.721-2.454.721-1.201 0-2.168-.398-2.897-1.193h.004zm5.561-4.135c0-.789-.223-1.435-.671-1.942s-1.068-.758-1.864-.758-1.498.264-1.995.795-.769 1.283-.818 2.255l-.238-.407h5.826l-.237.426v-.37h-.003zm6.178-7.436h1.343v12.578h-1.343V55.91z"/>
</svg>
