<svg xmlns="http://www.w3.org/2000/svg" viewBox="0 0 20 20" fill="currentColor">
    <path d="M3.554 7.127c-.044 0-.087-.013-.126-.039-.103-.069-.13-.209-.06-.312a7.84 7.84 0 0 1 6.505-3.459c1.449 0 2.863.398 4.093 1.151.105.064.139.203.074.309s-.203.139-.309.074a7.38 7.38 0 0 0-3.858-1.084c-2.46 0-4.754 1.219-6.133 3.261-.044.064-.114.099-.186.099v-.001z"/>
    <path d="M9.874 8.227c-1.961 0-4.152-1.346-4.286-3.35-.08-1.183.253-2.21.96-2.967C7.325 1.077 8.538.6 9.874.6c2.9 0 5.398 2.323 6.212 5.78.018.077-.005.157-.062.212s-.137.077-.213.058c-1.047-.268-1.81.136-2.693.604-.859.456-1.831.973-3.246.973h.001zM6.037 4.848c.117 1.727 2.116 2.93 3.837 2.93 1.303 0 2.183-.467 3.034-.92.83-.441 1.618-.861 2.653-.715-.843-3.061-3.094-5.092-5.688-5.092-1.212 0-2.304.426-2.998 1.168-.63.674-.912 1.558-.839 2.63h.001zm3.306 14.141c-2.623-.185-4.959-1.644-6.264-3.904a7.84 7.84 0 0 1-1.05-4.12c.003-.124.109-.227.23-.218.124.003.222.107.218.23a7.38 7.38 0 0 0 .99 3.884 7.39 7.39 0 0 0 5.891 3.681c.123.009.217.117.208.24s-.107.209-.223.209l.001-.001z"/>
    <path d="M4.309 18.758a3.45 3.45 0 0 1-.784-.09c-1.11-.258-2.13-1.069-2.798-2.225-1.45-2.513-.687-5.836 1.899-8.27.058-.054.139-.074.214-.053s.135.08.157.155c.291 1.042 1.023 1.499 1.87 2.029.824.516 1.757 1.1 2.464 2.324.981 1.698.91 4.269-.757 5.386-.733.492-1.503.742-2.265.742v.001zM2.683 8.747C.454 11.008-.18 13.973 1.116 16.218c.606 1.049 1.521 1.783 2.51 2.012.898.208 1.806.01 2.698-.588 1.437-.964 1.48-3.297.619-4.788-.651-1.128-1.496-1.657-2.314-2.168-.797-.499-1.554-.973-1.946-1.94zm10.834 9.334c-.08 0-.157-.042-.198-.117-.059-.109-.019-.245.09-.304a7.37 7.37 0 0 0 2.868-2.799c1.231-2.13 1.321-4.725.243-6.942-.054-.112-.008-.246.104-.3s.246-.008.3.104a7.85 7.85 0 0 1-.257 7.363 7.83 7.83 0 0 1-3.043 2.968.23.23 0 0 1-.107.027h-.001z"/>
    <path d="M13.517 19.33a9.09 9.09 0 0 1-2.609-.397c-.076-.023-.133-.083-.153-.159s.003-.157.056-.213c.756-.773.787-1.635.823-2.634.035-.972.073-2.071.78-3.297.98-1.698 3.242-2.921 5.044-2.037 1.065.522 1.788 1.323 2.089 2.315.332 1.091.139 2.379-.529 3.536-1.072 1.856-3.129 2.886-5.503 2.886l.001-.001zm-2.141-.732c3.072.8 5.957-.133 7.254-2.379.606-1.049.783-2.209.488-3.18-.268-.882-.893-1.568-1.857-2.042-1.554-.764-3.596.367-4.457 1.858-.651 1.128-.687 2.124-.721 3.088-.033.939-.065 1.833-.707 2.655h.001z"/>
</svg>
